<svg width="50" height="50" viewBox="0 0 50 50" fill="none" xmlns="http://www.w3.org/2000/svg">
<path d="M16.5877 41.3957H37.0065C37.8384 41.3957 38.4818 40.7523 38.4818 39.9205C38.4818 39.2143 37.9952 38.6962 37.399 38.4137C35.4684 37.5505 35.0918 34.8825 37.0536 33.0148C37.854 32.3086 38.4661 31.5237 38.4661 29.9386V12.5645C38.4661 9.17446 36.724 7.40094 33.3497 7.40094H16.619C13.2604 7.40094 11.5026 9.15876 11.5026 12.5645V36.2793C11.5026 39.638 13.2604 41.3957 16.5877 41.3957ZM33.0672 10.5242C34.5895 10.5242 35.3429 11.3246 35.3429 12.7685V29.4521C35.3429 30.2211 34.9034 30.6448 34.1186 30.6448H18.7065V10.5242H33.0672ZM14.6258 31.1943V12.7685C14.6258 11.4659 15.2379 10.6968 16.4778 10.5556V30.6605C15.7715 30.7234 15.1594 30.9116 14.6258 31.1943ZM21.5158 17.7124H32.4865C33.0986 17.7124 33.6008 17.2102 33.6008 16.5981C33.6008 15.986 33.0986 15.4837 32.4865 15.4837H21.5158C20.9038 15.4837 20.4015 15.986 20.4015 16.5981C20.4015 17.2102 20.9038 17.7124 21.5158 17.7124ZM21.5158 22.0912H29.834C30.4461 22.0912 30.9484 21.5889 30.9484 20.977C30.9484 20.3648 30.4461 19.8625 29.834 19.8625H21.5158C20.9038 19.8625 20.4015 20.3648 20.4015 20.977C20.4015 21.5889 20.9038 22.0912 21.5158 22.0912ZM17.0114 38.4452C15.3321 38.4452 14.4532 37.4879 14.4532 36.0125C14.4532 34.5843 15.4576 33.5955 17.1213 33.5955H32.7847C32.9574 33.5955 33.1299 33.5798 33.2868 33.5484C32.5022 35.2121 32.5963 37.017 33.4438 38.4452H17.0114Z" fill="white"/>
</svg>
