<svg width="28" height="28" viewBox="0 0 28 28" fill="none" xmlns="http://www.w3.org/2000/svg">
<path d="M7.18848 19.0508C6.81934 19.4199 6.80176 20.0791 7.19727 20.4658C7.58398 20.8525 8.24316 20.8438 8.6123 20.4746L13.9912 15.0869L19.3789 20.4746C19.7568 20.8525 20.4072 20.8525 20.7939 20.4658C21.1719 20.0703 21.1807 19.4287 20.7939 19.0508L15.415 13.6631L20.7939 8.28418C21.1807 7.90625 21.1807 7.25586 20.7939 6.86914C20.3984 6.49121 19.7568 6.48242 19.3789 6.86035L13.9912 12.248L8.6123 6.86035C8.24316 6.49121 7.5752 6.47363 7.19727 6.86914C6.81055 7.25586 6.81934 7.91504 7.18848 8.28418L12.5762 13.6631L7.18848 19.0508Z" fill="#626262"/>
</svg>

