<svg width="28" height="28" viewBox="0 0 28 28" fill="none" xmlns="http://www.w3.org/2000/svg">
<path d="M8.31348 17.9346C7.94434 18.3037 7.92676 18.9629 8.32227 19.3408C8.7002 19.7363 9.36816 19.7188 9.7373 19.3496L14 15.0869L18.2627 19.3496C18.6406 19.7275 19.291 19.7363 19.6689 19.3408C20.0645 18.9629 20.0557 18.3037 19.6777 17.9258L15.415 13.6631L19.6777 9.40918C20.0557 9.02246 20.0645 8.37207 19.6689 7.99414C19.291 7.59863 18.6406 7.60742 18.2627 7.98535L14 12.248L9.7373 7.98535C9.36816 7.61621 8.7002 7.59863 8.32227 7.99414C7.92676 8.37207 7.94434 9.03125 8.31348 9.40039L12.5762 13.6631L8.31348 17.9346Z" fill="#FFFFFF"/>
</svg>

