<?xml version="1.0" encoding="UTF-8"?>
<svg xmlns="http://www.w3.org/2000/svg" xmlns:xlink="http://www.w3.org/1999/xlink" viewBox="0 0 28 28" width="25px" height="25px">
<g id="surface3910034">
<path style=" stroke:none;fill-rule:nonzero;fill:rgb(77.64706%,75.294119%,64.313728%);fill-opacity:1;" d="M 21 2.332031 C 19.066406 2.332031 17.5 3.898438 17.5 5.832031 C 17.5 6.054688 17.523438 6.273438 17.5625 6.488281 L 9.261719 11.328125 C 8.628906 10.792969 7.828125 10.5 7 10.5 C 5.066406 10.5 3.5 12.066406 3.5 14 C 3.5 15.933594 5.066406 17.5 7 17.5 C 7.828125 17.5 8.628906 17.203125 9.257812 16.667969 L 17.5625 21.511719 C 17.523438 21.726562 17.5 21.945312 17.5 22.167969 C 17.5 24.101562 19.066406 25.667969 21 25.667969 C 22.933594 25.667969 24.5 24.101562 24.5 22.167969 C 24.5 20.234375 22.933594 18.667969 21 18.667969 C 20.171875 18.667969 19.371094 18.960938 18.738281 19.5 L 10.4375 14.652344 C 10.476562 14.4375 10.5 14.21875 10.5 14 C 10.5 13.78125 10.476562 13.5625 10.4375 13.347656 L 18.738281 8.503906 C 19.371094 9.039062 20.171875 9.332031 21 9.332031 C 22.933594 9.332031 24.5 7.765625 24.5 5.832031 C 24.5 3.898438 22.933594 2.332031 21 2.332031 Z M 21 2.332031 "/>
</g>
</svg>
