<svg width="28" height="28" viewBox="0 0 28 28" fill="none" xmlns="http://www.w3.org/2000/svg">
<path d="M14.6416 23.2344L23.2549 14.6123C23.9404 13.918 24.0107 13.5137 24.0107 12.5117V9.18066C24.0107 8.20508 23.7822 7.87109 23.0703 7.15918L21.0576 5.14648C20.3369 4.43457 20.0029 4.20605 19.0361 4.20605H15.6963C14.7031 4.20605 14.2988 4.27637 13.6133 4.9707L4.98242 13.584C3.66406 14.9023 3.64648 16.2998 4.99121 17.627L10.5986 23.2344C11.9346 24.5615 13.3232 24.5527 14.6416 23.2344ZM13.5078 21.8896C12.9277 22.4697 12.3213 22.4785 11.7236 21.8809L6.33594 16.502C5.73828 15.9043 5.75586 15.2891 6.32715 14.7178L14.8613 6.20117C15.0371 6.02539 15.2041 5.91992 15.4854 5.91992H19.0186C19.2822 5.91992 19.4668 6.0166 19.6426 6.19238L22.0244 8.57422C22.1914 8.75 22.2881 8.92578 22.2881 9.19824V12.7314C22.2881 13.0215 22.2002 13.1885 22.0244 13.3643L13.5078 21.8896ZM17.9375 11.5361C18.6582 11.5361 19.2031 10.9824 19.2031 10.2705C19.2031 9.56738 18.6582 9.00488 17.9375 9.00488C17.2256 9.00488 16.6807 9.56738 16.6807 10.2705C16.6807 10.9824 17.2256 11.5361 17.9375 11.5361Z" fill="#0A81AB"/>
</svg>
